<?xml version="1.0" encoding="UTF-8" standalone="no" ?>
<!DOCTYPE svg PUBLIC "-//W3C//DTD SVG 1.1//EN" "http://www.w3.org/Graphics/SVG/1.1/DTD/svg11.dtd">
<svg xmlns="http://www.w3.org/2000/svg" xmlns:xlink="http://www.w3.org/1999/xlink" version="1.1" width="1080" height="1080" viewBox="0 0 1080 1080" xml:space="preserve">
<desc>Created with Fabric.js 5.2.4</desc>
<defs>
</defs>
<g transform="matrix(1 0 0 1 540 540)" id="6cd56588-3519-471c-bf61-1b23a697a952"  >
<rect style="stroke: none; stroke-width: 1; stroke-dasharray: none; stroke-linecap: butt; stroke-dashoffset: 0; stroke-linejoin: miter; stroke-miterlimit: 4; fill: rgb(255,255,255); fill-rule: nonzero; opacity: 1; visibility: hidden;" vector-effect="non-scaling-stroke"  x="-540" y="-540" rx="0" ry="0" width="1080" height="1080" />
</g>
<g transform="matrix(1 0 0 1 540 540)" id="26e27d3c-eeb0-46c8-8882-daa9a1198e34"  >
</g>
<g transform="matrix(1 0 0 1 540 540)" id="474a2f18-0108-4a2e-93a2-be4ac97840b6"  >
<path style="stroke: rgb(255,255,255); stroke-width: 0; stroke-dasharray: none; stroke-linecap: butt; stroke-dashoffset: 0; stroke-linejoin: miter; stroke-miterlimit: 4; fill: rgb(255,255,255); fill-rule: nonzero; opacity: 1;" vector-effect="non-scaling-stroke"  transform=" translate(-66.78, -61.94)" d="M 44.44 100.63 C 40.209999999999994 97.3 35.699999999999996 94.11 32.61 89.61999999999999 C 26.119999999999997 81.69999999999999 21.119999999999997 72.51999999999998 17.71 62.879999999999995 C 15.64 56.61 14.940000000000001 49.88999999999999 12.27 43.86 C 9.49 39.48 12.75 34.7 17.54 33.31 C 19.669999999999998 32.900000000000006 23.43 30.880000000000003 18.9 32.330000000000005 C 14.84 35.31 14.45 29.620000000000005 18.61 29.260000000000005 C 21.45 28.880000000000006 22.5 26.560000000000006 21.53 24.460000000000004 C 18.48 22.470000000000006 28.93 20.280000000000005 23.67 17.310000000000002 C 18.19 11.400000000000002 31.330000000000002 10.260000000000002 28.090000000000003 16.980000000000004 C 27.320000000000004 22.140000000000004 37.27 16.030000000000005 34.96 21.990000000000002 C 37.31 24.85 43.760000000000005 22.64 43.59 26.660000000000004 C 47.010000000000005 26.900000000000002 48.190000000000005 29.770000000000003 51.39 29.990000000000002 C 54.72 31.490000000000002 60.75 32.68 61.88 36.43 C 58.580000000000005 39.04 50.93000000000001 31.03 50.57 38.27 C 51.57 48.96 51.31 59.97 55.22 70.15 C 57.07 76.31 61.55 81.16000000000001 65.6 85.96000000000001 C 69.47999999999999 90.66000000000001 74.72 93.97000000000001 80.08 96.76 C 84.77 98.97 89.83 100.44000000000001 94.95 101.36 C 97.02 99.77 100.69 93.88 103.92 96.36 C 104.08 99.16 97.5 102.2 103.61 101.9 C 107.2 100.82000000000001 109.69 104.67 112.65 101.19000000000001 C 115.37 104.42000000000002 123.97 99.13000000000001 122.03 105.72000000000001 C 119.41 107.41000000000001 115.59 106.39000000000001 112.96000000000001 108.72000000000001 C 108.63000000000001 106.56000000000002 105.19000000000001 110.65000000000002 100.4 110.14000000000001 C 95.08000000000001 111.09000000000002 89.67 111.48000000000002 84.27000000000001 111.48000000000002 C 75.42000000000002 110.78000000000002 66.38000000000001 110.49000000000002 57.97000000000001 107.41000000000003 C 53.23000000000001 106.03000000000003 48.600000000000016 103.33000000000003 44.44000000000001 100.63000000000002 z M 51.91 103.86999999999999 C 56.54 105.86999999999999 61.06999999999999 107.97999999999999 66.14 108.61999999999999 C 74.19 109.74 82.51 111.46 90.59 109.88999999999999 C 86.93 108.23999999999998 83.15 110.52999999999999 79.51 108.70999999999998 C 75.14 109.64999999999998 70.45 108.46999999999998 66.01 107.88999999999999 C 60.96000000000001 105.63999999999999 55.510000000000005 104.08999999999999 50.78 101.16999999999999 C 44.870000000000005 99.00999999999999 53.84 103.93999999999998 55.43 104.33999999999999 C 59.12 106.43999999999998 51.37 103.25999999999999 50.269999999999996 102.38999999999999 C 47.17999999999999 100.64999999999999 46.779999999999994 101.01999999999998 49.959999999999994 102.77999999999999 C 50.599999999999994 103.14999999999999 51.239999999999995 103.54999999999998 51.91 103.86999999999999 z M 43.099999999999994 97.63999999999999 C 47.589999999999996 99.29999999999998 43.07999999999999 94.47999999999999 41.029999999999994 94.75999999999999 C 40.12 93.17999999999999 37.55 92.17999999999999 39.35999999999999 91.32999999999998 C 36.099999999999994 92.45999999999998 35.93999999999999 87.02999999999999 34.40999999999999 87.79999999999998 C 30.95999999999999 86.70999999999998 33.069999999999986 82.84999999999998 28.95999999999999 80.47999999999999 C 28.58999999999999 77.97999999999999 24.87999999999999 75.82 23.69999999999999 72.04999999999998 C 23.17999999999999 70.11999999999998 19.509999999999987 64.58999999999999 21.759999999999987 69.73999999999998 C 23.679999999999986 74.69999999999997 27.049999999999986 78.94999999999999 29.859999999999985 83.18999999999998 C 32.039999999999985 87.22999999999999 34.61999999999998 91.44999999999999 38.579999999999984 93.96999999999998 C 39.91999999999999 95.26999999999998 41.20999999999999 97.23999999999998 43.09999999999998 97.63999999999999 z M 30.17 83.45 C 30.330000000000002 82.77 30.990000000000002 84.91 30.17 83.45 z M 48.47 99.63 C 49.47 99.19 47.04 99.07 48.47 99.63 z M 50.91 100.52 C 50.66 99.28999999999999 49.8 101.21 50.91 100.52 z M 53.959999999999994 101.78999999999999 C 55.41 100.41 51.71999999999999 100.91999999999999 53.959999999999994 101.78999999999999 z M 59.17999999999999 104.69999999999999 C 60.06999999999999 103.39999999999999 56.35999999999999 104.21 59.17999999999999 104.69999999999999 z M 49.14999999999999 97.71 C 51.39999999999999 96.25 46.239999999999995 97.69 49.14999999999999 97.71 z M 51.43999999999999 98.85 C 51.36999999999999 98.08 50.61999999999999 99.19 51.43999999999999 98.85 z M 62.86999999999999 105.97999999999999 C 64.71 107.13999999999999 73.6 108.52 68.02999999999999 106.46 C 67.09999999999998 106.66 57.69999999999999 103.8 62.86999999999999 105.97999999999999 z M 44.72 91.85 C 44.54 91.08 41.87 91 44.72 91.85 z M 50.04 94.94999999999999 C 51.43 93.99 47.17 94.21 50.04 94.94999999999999 z M 54.519999999999996 97.69999999999999 C 56.49999999999999 96.94999999999999 51.29 96.94999999999999 54.519999999999996 97.69999999999999 z M 42.55 89.48999999999998 C 44.709999999999994 91.13999999999999 51.25 89.69999999999997 45.849999999999994 88.49999999999999 C 43.39999999999999 87.18999999999998 37.85999999999999 86.29999999999998 41.629999999999995 89.28999999999999 L 42.55 89.49 z M 57.55 98.64999999999998 C 58.449999999999996 97.11999999999998 53.779999999999994 97.76999999999998 57.55 98.64999999999998 z M 52.989999999999995 95.01999999999998 C 58.25999999999999 96.50999999999998 48.559999999999995 91.67999999999998 51.69 94.46999999999998 L 52.39 94.78999999999998 L 52.99 95.01999999999998 z M 62.129999999999995 100.29999999999998 C 67.11999999999999 100.34999999999998 57.62 99.61999999999998 62.129999999999995 100.29999999999998 z M 40.629999999999995 86.59999999999998 C 40.44 85.66999999999997 39.4 86.67999999999998 40.629999999999995 86.59999999999998 z M 70.57 105.03999999999998 C 70.71 103.35999999999997 68.94999999999999 106.28999999999998 70.57 105.03999999999998 z M 49.15 91.82 C 48.85 90.94 47.589999999999996 91.77999999999999 49.15 91.82 z M 41.11 86.02 C 43.97 85.85 37.18 84.75999999999999 41.11 86.02 z M 31.57 79.86 C 31.21 78.48 28.45 77.39 31.57 79.86 z M 56.6 95.74 C 56.08 95.14 56.35 95.86999999999999 56.6 95.74 z M 72.18 105.3 C 72.13000000000001 104.39 71.33000000000001 105.64999999999999 72.18 105.3 z M 55.22 94.32 C 55.5 93.13999999999999 52.78 93.96 55.22 94.32 z M 43.62 86.96 C 45.75 86.72999999999999 40.199999999999996 85.52 43.62 86.96 z M 63.25 99.16 C 66.57 97.84 60.01 98.52 63.25 99.16 z M 53.04 92.22999999999999 C 56.87 92.71999999999998 48.48 89.61999999999999 52.199999999999996 91.94999999999999 L 53.04 92.22999999999999 z M 66.35 100.41999999999999 C 69.92999999999999 98.27999999999999 68.75 105.42999999999999 72.41999999999999 101.01999999999998 C 76.03999999999999 98.37999999999998 69.28999999999999 104.28999999999998 73.74999999999999 101.48999999999998 C 76.97999999999999 99.32999999999998 81.73999999999998 102.50999999999998 84.74999999999999 103.54999999999998 C 86.90999999999998 103.43999999999998 89.01999999999998 105.41999999999999 91.23999999999998 104.21999999999998 C 95.50999999999998 103.06999999999998 82.87999999999998 102.50999999999999 86.18999999999998 100.46999999999998 C 82.27999999999999 101.60999999999999 79.38999999999999 99.10999999999999 77.46999999999998 96.60999999999999 C 73.07999999999998 95.59999999999998 68.00999999999999 93.35999999999999 65.81999999999998 89.46999999999998 C 64.92999999999998 88.00999999999999 67.10999999999999 89.67999999999998 65.04999999999998 87.28999999999998 C 62.40999999999998 84.93999999999998 61.08999999999998 82.26999999999998 59.31999999999998 79.40999999999998 C 57.19999999999998 78.27999999999999 56.94999999999998 74.94999999999999 56.73999999999998 79.29999999999998 C 56.759999999999984 76.55999999999999 54.17999999999998 74.70999999999998 53.54999999999998 75.47999999999999 C 53.539999999999985 72.83999999999999 56.30999999999998 74.16 54.36999999999998 72.21 C 53.94999999999998 69.47 52.579999999999984 66.61999999999999 52.16999999999998 63.529999999999994 C 51.52999999999998 62.03999999999999 52.07999999999998 58.849999999999994 49.97999999999998 62.21999999999999 C 49.219999999999985 65.78999999999999 49.72999999999998 57.83999999999999 50.91999999999998 60.459999999999994 C 52.47999999999998 57.78999999999999 50.35999999999998 58.099999999999994 50.26999999999998 58.46999999999999 C 51.289999999999985 56.209999999999994 50.90999999999998 53.00999999999999 49.99999999999998 54.22999999999999 C 50.53999999999998 51.83999999999999 50.85999999999998 45.42999999999999 49.189999999999976 46.56999999999999 C 50.199999999999974 44.06999999999999 51.10999999999998 35.129999999999995 46.71999999999998 38.53999999999999 C 44.939999999999976 38.56999999999999 41.869999999999976 39.17999999999999 40.409999999999975 39.90999999999999 C 44.96999999999998 42.41999999999999 39.949999999999974 40.819999999999986 38.089999999999975 40.41999999999999 C 37.84999999999997 42.749999999999986 36.00999999999998 41.73999999999999 33.70999999999997 41.75999999999999 C 37.379999999999974 42.209999999999994 31.919999999999973 45.50999999999999 29.819999999999972 44.22999999999999 C 27.07999999999997 45.53999999999999 32.17999999999997 48.79999999999999 29.869999999999973 49.80999999999999 C 30.149999999999974 51.32999999999999 25.67999999999997 49.25999999999999 26.029999999999973 52.76999999999999 C 23.379999999999974 51.64999999999999 25.669999999999973 56.92999999999999 26.989999999999974 55.14999999999999 C 31.49999999999997 56.36999999999999 30.169999999999973 59.15999999999999 30.279999999999973 61.79999999999999 C 29.539999999999974 63.33999999999999 26.649999999999974 58.17999999999999 29.639999999999972 58.41999999999999 C 27.279999999999973 54.58999999999999 27.029999999999973 57.039999999999985 25.079999999999973 58.80999999999999 C 24.629999999999974 58.93999999999999 30.069999999999972 61.33999999999999 26.649999999999974 62.52999999999999 C 29.659999999999975 62.999999999999986 29.749999999999975 65.62999999999998 30.359999999999975 67.28999999999999 C 32.16999999999997 69.16999999999999 31.799999999999976 65.21 33.95999999999997 67.47 C 32.589999999999975 65.45 26.709999999999972 61.79 31.439999999999973 62.96 C 31.40999999999997 60.93 30.579999999999973 59.29 32.03999999999997 59.33 C 33.47999999999997 56.73 30.52999999999997 65.75 33.76999999999997 62.44 C 34.669999999999966 62.05 34.889999999999965 59.839999999999996 36.499999999999964 62.65 C 38.83999999999996 64.95 37.349999999999966 66.62 34.039999999999964 64.51 C 34.62999999999997 66.52000000000001 38.459999999999965 67.23 37.73999999999997 70.37 C 38.499999999999964 73.13000000000001 39.569999999999965 72.11 40.499999999999964 71.95 C 41.22999999999996 74.63000000000001 41.639999999999965 72.66 41.679999999999964 71.38000000000001 C 45.01999999999997 72.10000000000001 44.23999999999997 74.07000000000001 45.279999999999966 75.45000000000002 C 47.57999999999996 76.49000000000002 41.98999999999997 68.41000000000001 45.93999999999996 73.02000000000001 C 50.099999999999966 76.77000000000001 47.499999999999964 78.34 43.76999999999996 77.74000000000001 C 46.12999999999996 77.55000000000001 46.88999999999996 80.93 49.83999999999996 80.81 C 52.52999999999996 82.09 54.35999999999996 87.01 49.71999999999996 84.96000000000001 C 48.109999999999964 83.51 42.40999999999996 81.72000000000001 47.069999999999965 84.48 C 51.36999999999996 86.47 54.779999999999966 87.66000000000001 58.929999999999964 90.16 C 61.889999999999965 92.28 63.179999999999964 94.7 64.29999999999997 95.17999999999999 C 61.80999999999997 96.36999999999999 56.78999999999997 94.22999999999999 60.51999999999997 93.57 C 58.18999999999997 93.14999999999999 55.57999999999997 91.97 57.80999999999997 94.86999999999999 C 59.69999999999997 96.44999999999999 64.51999999999997 96.28999999999999 65.38999999999997 96.46 C 64.65999999999997 98.07 63.39999999999997 98.19999999999999 65.41999999999997 98.32 C 63.16999999999997 99.53999999999999 66.13999999999997 99.72999999999999 66.34999999999998 100.41999999999999 z M 61.74999999999999 87.41999999999999 C 60.379999999999995 85.98999999999998 60.029999999999994 83.30999999999999 61.50999999999999 85.63999999999999 C 62.25999999999999 85.93999999999998 63.93999999999999 90.01999999999998 61.74999999999999 87.41999999999999 z M 76.74 96.93999999999998 C 77.58999999999999 96.87999999999998 76.75999999999999 97.58999999999999 76.74 96.93999999999998 z M 59.59 83.91 C 59.53 81.74 60.080000000000005 85.58 59.59 83.91 z M 58.1 81.9 C 56.370000000000005 78.58000000000001 60.27 82.85000000000001 58.1 81.9 z M 40.04 69.44 C 41.05 69.17 40.54 71.17 40.04 69.44 z M 54.41 77.23 C 55.029999999999994 74.9 55.13999999999999 79.19 54.41 77.23 z M 44.26 70.17 C 43.55 68.88 45.76 71.38 44.26 70.17 z M 52.97 72.96000000000001 C 51.339999999999996 69.31 54.129999999999995 70.96000000000001 53.33 73.56 L 52.97 72.96000000000001 z M 37.95 62.95 C 37.220000000000006 61.75 36.02 58.230000000000004 36.400000000000006 57.160000000000004 C 36.75000000000001 58.910000000000004 40.120000000000005 64.69 38.050000000000004 59.550000000000004 C 35.77 55.25000000000001 40.78 60.95 41.300000000000004 62.02 C 41.540000000000006 63.09 39.89000000000001 61.730000000000004 41.010000000000005 64.23 C 38.970000000000006 61.38 39.81 65.81 37.95 62.95 z M 33.31 59.75 C 33.5 56.96 34.370000000000005 61.66 33.31 59.75 z M 35.39 60.47 C 36.39 58.36 37.08 63.4 35.39 60.47 z M 30.37 56.58 C 28.64 54.86 27.39 53.28 30.45 55.51 C 31.63 55.559999999999995 27.83 51.91 30.73 54.35 C 33.79 54.910000000000004 32.24 59.36 30.37 56.58 z M 33.01 56.51 C 34.01 55.519999999999996 33.54 57.489999999999995 33.01 56.51 z M 34.629999999999995 57.03 C 33.10999999999999 54.18 36.48 58.230000000000004 34.629999999999995 57.03 z M 31.409999999999997 53.95 C 26.389999999999997 49.480000000000004 37.72 56.290000000000006 32.23 54.78 L 31.409999999999997 53.95 z M 45.8 62.31 C 43.62 61.010000000000005 45.22 53.13 45.959999999999994 58.52 C 48.06999999999999 57.84 45.839999999999996 61.300000000000004 47.419999999999995 61.27 C 47.17999999999999 63.45 46.46999999999999 64.24000000000001 45.8 62.31 z M 51.129999999999995 65.46000000000001 C 51.339999999999996 63.080000000000005 51.58 67.08000000000001 51.129999999999995 65.46000000000001 z M 50.199999999999996 64.54 C 50.44 63.53000000000001 50.23 65.74000000000001 50.199999999999996 64.54 z M 32.39 52.48 C 29.16 48.029999999999994 41.77 56.989999999999995 34.46 53.61 C 33.69 53.4 32.77 53.33 32.39 52.48 z M 42.65 57.91 C 42.339999999999996 54.16 43.33 58.529999999999994 42.65 57.91 z M 50.43 62.91 C 51.03 60.769999999999996 50.48 64.32 50.43 62.91 z M 32.89 50.78 C 34.81 50.370000000000005 40.84 54.15 35.3 51.86 C 34.68 51.17 33.37 51.48 32.89 50.78 z M 49.36 58.99 C 49.56 55.150000000000006 50.51 56.7 49.37 59.54 L 49.36 58.99 z M 34.31 49.44 C 35.09 48.29 32.230000000000004 44.26 34.72 47.989999999999995 C 35.8 48.839999999999996 37.83 49.419999999999995 36.03 49.779999999999994 C 38.870000000000005 52.279999999999994 35.35 50.459999999999994 34.31 49.43999999999999 z M 48.550000000000004 57.79 C 49.09 53.42 49.02 60.35 48.550000000000004 57.79 z M 32.68 45.41 C 33.28 45.15 33 46.199999999999996 32.68 45.41 z M 36.39 47.62 C 37.35 45.61 38.160000000000004 49.849999999999994 36.39 47.62 z M 46.86 53.44 C 46.86 52.669999999999995 47.06 54.559999999999995 46.86 53.44 z M 46.26 52.099999999999994 C 44.809999999999995 48.50999999999999 47.61 53.99999999999999 46.26 52.099999999999994 z M 45.37 49.74999999999999 C 45.12 48.269999999999996 46.199999999999996 51.60999999999999 45.37 49.74999999999999 z M 46.82 47.38999999999999 C 45.82 45.629999999999995 48.08 39.63999999999999 48.33 43.35999999999999 C 47.28 46.24999999999999 48.03 47.86999999999999 48.76 43.989999999999995 C 50.12 40.92999999999999 48.47 50.00999999999999 46.82 47.38999999999999 z M 48.31 38.47999999999999 C 48.75 37.94999999999999 48.410000000000004 39.12999999999999 48.31 38.47999999999999 z M 45.82 87.6 C 45.23 87.08 45.89 87.92999999999999 45.82 87.6 z M 50.95 90.19999999999999 C 53.81 90.93999999999998 53.790000000000006 89.75999999999999 51.21 89.40999999999998 C 49.82 88.11999999999998 45.44 86.74999999999999 49.36 89.24999999999999 C 49.63 89.89999999999999 50.45 89.87999999999998 50.95 90.19999999999999 z M 40.81 83.46 C 42.38 84.64 46.74 86.77999999999999 43.050000000000004 83.91 C 44.290000000000006 82.47 40.67 81.7 41.870000000000005 80.72999999999999 C 38.81 78.85999999999999 39.46000000000001 79.02999999999999 41.6 79.08999999999999 C 37.93 77.44999999999999 42.13 77.57 41.93 76.72999999999999 C 40.51 76.44999999999999 34.9 74.22999999999999 38.2 76.91 C 34.84 75.2 37.400000000000006 77.55 36.38 77.3 C 32.940000000000005 76.36 39.440000000000005 79.92 35.84 79.03 C 37.81 80.59 41.14 83.03 36.67 80.68 C 36.1 81.53 39.88 82.82000000000001 40.81 83.46000000000001 z M 46.18 86.55 C 52.71 88.64999999999999 42.98 83.97 46.18 86.55 z M 73.68 103.19999999999999 C 73.76 101.89999999999999 72.78 104.30999999999999 73.68 103.19999999999999 z M 76.5 104.38999999999999 C 78.01 102.92999999999999 76.56 106.71999999999998 79 104.02999999999999 C 79.03 102.10999999999999 78.93 100.96999999999998 76.2 103.30999999999999 C 75.45 103.72999999999999 75.11 105.49999999999999 76.5 104.38999999999999 z M 31.65 76.22 C 31.18 74.4 28.4 74.41 31.65 76.22 z M 34.66 78.2 C 33.54 76.34 30.659999999999997 76.52 34.66 78.2 z M 51.83 88.55 C 53.51 90.03999999999999 59.53 89.64 53.86 88.73 C 53.03 87.49000000000001 48.54 87.79 51.83 88.55 z M 75.43 103.12 C 78 100.96000000000001 72.93 104.09 75.43 103.12 z M 80.79 106.81 C 80.81 106.12 79.68 107.11 80.79 106.81 z M 80.80000000000001 105.84 C 83.66000000000001 102.81 78.03000000000002 106.02000000000001 80.80000000000001 105.84 z M 24.22 70.01 C 21.79 66.54 22.709999999999997 64.98 20.36 62.14000000000001 C 19.91 59.970000000000006 16.33 55.05000000000001 18.509999999999998 60.260000000000005 C 20.499999999999996 63.31 21.089999999999996 68.03 24.22 70.01 z M 79.9 104.88 C 85.16000000000001 101.47999999999999 77.75 103.39999999999999 79.9 104.88 z M 83.91000000000001 106.44999999999999 C 86.55000000000001 104.18999999999998 82.25000000000001 105.97999999999999 83.91000000000001 106.44999999999999 z M 30.75 72.38 C 31.51 71.25999999999999 28.81 72.24 30.75 72.38 z M 83.08 105.37 C 85.63 103.73 82.49 103.98 82.62 105.52000000000001 L 83.08 105.37 z M 48.5 83.58 C 48.41 82.47 47.15 83.67 48.5 83.58 z M 50.64 84.81 C 49.95 83.43 49.59 85.02 50.64 84.81 z M 87.17 106.48 C 90.44 104.12 85.19 106.03 86.49 106.93 L 87.17 106.48 z M 85.91 105.88000000000001 C 88.58 103.65 83.11 106.87 85.91 105.88000000000001 z M 92.3 110.13000000000001 C 94.09 108.94000000000001 90.13 109.75000000000001 92.3 110.13000000000001 z M 32.39 71.57 C 34.78 72.11 41.95 77.46 37.72 71.94 C 35.55 71.3 36.85 66 34.64 66.94 C 36.12 69.42 35.86 70.47 32.74 68.91 C 28.830000000000002 67 30.540000000000003 69.85 31.310000000000002 70.64 C 30.270000000000003 70.89 32.7 71.55 32.39 71.57000000000001 z M 21.490000000000002 62.959999999999994 C 21.92 61.18999999999999 17.540000000000003 53.209999999999994 19.42 58.959999999999994 C 20.1 60.169999999999995 20.03 62.449999999999996 21.490000000000002 62.959999999999994 z M 41.5 75.3 C 40.27 74.27 41.44 75.14999999999999 41.5 75.3 z M 44.53 76.00999999999999 C 44.53 74.13 41.18 75.24 44.53 76.00999999999999 z M 70.83 92.57999999999998 C 70.33 91.29999999999998 68.85 92.55999999999999 70.83 92.57999999999998 z M 72.09 93.50999999999999 C 71.91 92.78999999999999 71.37 93.64999999999999 72.09 93.50999999999999 z M 82.52000000000001 100.07 C 83.52000000000001 99.33 81.27000000000001 99.97999999999999 82.52000000000001 100.07 z M 26.93 64.35 C 29.8 63.239999999999995 23.86 63.559999999999995 26.93 64.35 z M 68.52000000000001 90.55 C 68.48 88.69 66.69000000000001 91.00999999999999 68.52000000000001 90.55 z M 25.8 61.71 C 27.64 61.09 24.09 61.300000000000004 25.8 61.71 z M 31.14 64.3 C 31.11 63.69 30.580000000000002 64.53 31.14 64.3 z M 96.36 104.28999999999999 C 98.73 103.80999999999999 104.13 105.49999999999999 105 103.66 C 102.12 103.59 95.05 101.63 94.72 104.11999999999999 L 95.35 104.21999999999998 L 96.36 104.28999999999998 z M 32.84 64.73 C 32.89 62.85 31.380000000000003 64.66000000000001 32.84 64.73 z M 18.790000000000003 54.980000000000004 C 18.150000000000002 51.400000000000006 16.360000000000003 54.440000000000005 18.790000000000003 54.980000000000004 z M 22.140000000000004 55.82000000000001 C 22.180000000000003 54.67000000000001 19.070000000000004 54.790000000000006 22.140000000000004 55.82000000000001 z M 24.050000000000004 56.760000000000005 C 23.500000000000004 56.32000000000001 23.620000000000005 57.330000000000005 24.050000000000004 56.760000000000005 z M 36.11000000000001 64.49000000000001 C 36.68000000000001 63.970000000000006 34.760000000000005 64.11000000000001 36.11000000000001 64.49000000000001 z M 22.78000000000001 54.64000000000001 C 22.45000000000001 51.93000000000001 18.90000000000001 54.24000000000001 22.78000000000001 54.64000000000001 z M 15.910000000000007 50.18000000000001 C 15.810000000000008 48.93000000000001 15.240000000000007 50.650000000000006 15.910000000000007 50.18000000000001 z M 16.930000000000007 49.410000000000004 C 16.760000000000005 47.93000000000001 16.050000000000008 49.6 16.930000000000007 49.410000000000004 z M 22.580000000000005 52.78 C 24.970000000000006 51.84 18.230000000000004 50.84 22.090000000000007 52.6 L 22.580000000000005 52.78 z M 98.17000000000002 99.47 C 99.70000000000002 98.07 96.23000000000002 99.03999999999999 98.17000000000002 99.47 z M 107.30000000000001 104.21 C 107.91000000000001 102.39999999999999 105.76 104.44 107.30000000000001 104.21 z M 23.15 49.82 C 23.41 48.07 21.259999999999998 50.17 23.15 49.82 z M 15.12 44.44 C 14.69 41.97 14.75 37.62 18.88 39.089999999999996 C 13.37 40.19 22.7 45.94 21.52 41.4 C 23.84 41.51 26.05 40.03 24.84 42.28 C 29.41 41.78 32.57 37.82 36.980000000000004 38.370000000000005 C 40.42 37.910000000000004 44.17 37.57000000000001 47.870000000000005 36.190000000000005 C 50.910000000000004 35.970000000000006 53.84 32.690000000000005 52.18000000000001 30.750000000000004 C 48.03000000000001 30.400000000000002 43.68000000000001 30.920000000000005 39.10000000000001 31.830000000000005 C 34.02000000000001 32.89000000000001 29.40000000000001 34.89000000000001 24.27000000000001 35.760000000000005 C 19.27000000000001 36.43000000000001 25.27000000000001 37.61000000000001 23.84000000000001 37.870000000000005 C 21.23000000000001 38.77 26.95000000000001 39.39000000000001 23.50000000000001 40.34 C 21.37000000000001 39.93000000000001 19.150000000000013 39.2 20.06000000000001 36.96 C 15.27000000000001 37.58 11.06000000000001 39.57 14.850000000000009 44.44 L 15.120000000000008 44.44 z M 26.659999999999997 38.559999999999995 C 27.779999999999998 34.419999999999995 32.669999999999995 41.959999999999994 28.499999999999996 39.10999999999999 C 27.999999999999996 38.72999999999999 27.179999999999996 38.42999999999999 26.659999999999997 38.559999999999995 z M 26.879999999999995 36.55 C 28.499999999999996 35.349999999999994 27.739999999999995 37.23 26.879999999999995 36.55 z M 28.939999999999994 36.589999999999996 C 29.089999999999993 34.69 33.64999999999999 37.599999999999994 29.689999999999994 37.269999999999996 L 28.939999999999994 36.589999999999996 z M 31.749999999999993 35.449999999999996 C 32.779999999999994 34.24999999999999 32.04999999999999 36.519999999999996 31.749999999999993 35.449999999999996 z M 32.46999999999999 34.97 C 34.17999999999999 32.91 42.15999999999999 33.66 36.31999999999999 34.769999999999996 C 34.75999999999999 33.589999999999996 33.559999999999995 35.47 32.46999999999999 34.97 z M 42.88999999999999 33.37 C 42.629999999999995 27.749999999999996 48.06999999999999 35.36 42.88999999999999 33.37 z M 45.849999999999994 33.349999999999994 C 46.92999999999999 30.519999999999996 50.05 32.209999999999994 46.349999999999994 32.779999999999994 C 46.42999999999999 33.07999999999999 46.239999999999995 34.239999999999995 45.849999999999994 33.349999999999994 z M 21.99 48.37 C 25.22 46.39 18.56 46.65 21.99 48.37 z M 24.38 49.029999999999994 C 25.509999999999998 47.82999999999999 21.919999999999998 48.53999999999999 24.38 49.029999999999994 z M 17.34 44.03999999999999 C 19.19 42.61999999999999 15.16 43.49999999999999 17.34 44.03999999999999 z M 112.69 103.69 C 112.74 102.03999999999999 111.28 104.42999999999999 112.69 103.69 z M 103 97.08 C 103.28 95.17999999999999 101.76 97.24 103 97.08 z M 115.36 104.33 C 117.94 104.34 123.18 103.53 117.56 103.53 C 116.68 103.66 112.43 103.64 115.36 104.33 z M 26.48 47.87 C 28.57 47.73 29.75 45.57 26.07 45.69 C 20.38 45.099999999999994 31.09 47.64 25.34 46.91 C 24.57 47.419999999999995 26.43 48.01 26.48 47.87 z M 28.32 48.8 C 28.1 47.459999999999994 27.67 49.51 28.32 48.8 z M 30.5 42.98 C 31.4 41.86 29.24 42.68 30.5 42.98 z M 23.55 31.379999999999995 C 27.28 30.109999999999996 32.370000000000005 28.689999999999994 34.13 31.999999999999996 C 32.34 29.849999999999998 33.410000000000004 27.719999999999995 35.1 30.879999999999995 C 37.49 34.06999999999999 38.69 29.429999999999996 37.13 28.359999999999996 C 38.900000000000006 30.559999999999995 40.92 31.599999999999994 38.32 28.499999999999996 C 41.15 25.099999999999998 32.66 28.949999999999996 30.73 28.909999999999997 C 29.81 29.319999999999997 21.15 31.109999999999996 23.55 31.379999999999995 z M 25.740000000000002 27.199999999999996 C 27.87 25.599999999999994 33.09 28.159999999999997 29.740000000000002 25.609999999999996 C 29.410000000000004 25.309999999999995 22.39 27.539999999999996 25.740000000000002 27.199999999999996 z M 33.49 27.519999999999996 C 35.980000000000004 27.579999999999995 32.42 24.179999999999996 35.38 25.719999999999995 C 34.89 24.129999999999995 31.930000000000003 23.829999999999995 30.480000000000004 23.199999999999996 C 29.660000000000004 24.649999999999995 32.14 27.539999999999996 33.49 27.519999999999996 z M 27.1 20.479999999999997 C 27.96 19.319999999999997 25.59 21.08 27.1 20.479999999999997 z M 30.26 21.24 C 34.27 20.709999999999997 29.240000000000002 19.52 29.450000000000003 21.2 L 30.26 21.24 z M 24.35 16.619999999999997 C 21.53 12.929999999999998 29.66 17.24 26.790000000000003 13.379999999999997 C 24.380000000000003 11.459999999999997 22.060000000000002 15.539999999999997 24.35 16.619999999999997 z M 60.56 36.12 C 61.85 33.83 55.22 33.03 59.690000000000005 35.309999999999995 C 60.11000000000001 35.449999999999996 60.010000000000005 36.279999999999994 60.56 36.12 z" stroke-linecap="round" />
</g>
<g transform="matrix(NaN NaN NaN NaN 0 0)"  >
<g style=""   >
</g>
</g>
<g transform="matrix(NaN NaN NaN NaN 0 0)"  >
<g style=""   >
</g>
</g>
<g transform="matrix(NaN NaN NaN NaN 0 0)"  >
<g style=""   >
</g>
</g>
<g transform="matrix(NaN NaN NaN NaN 0 0)"  >
<g style=""   >
</g>
</g>
</svg>