<?xml version="1.0" encoding="UTF-8" standalone="no" ?>
<!DOCTYPE svg PUBLIC "-//W3C//DTD SVG 1.1//EN" "http://www.w3.org/Graphics/SVG/1.1/DTD/svg11.dtd">
<svg xmlns="http://www.w3.org/2000/svg" xmlns:xlink="http://www.w3.org/1999/xlink" version="1.1" width="1080" height="1080" viewBox="0 0 1080 1080" xml:space="preserve">
<desc>Created with Fabric.js 5.2.4</desc>
<defs>
</defs>
<g transform="matrix(1 0 0 1 540 540)" id="2b88b704-a7b7-4239-b81c-0e4522689ca9"  >
<rect style="stroke: none; stroke-width: 1; stroke-dasharray: none; stroke-linecap: butt; stroke-dashoffset: 0; stroke-linejoin: miter; stroke-miterlimit: 4; fill: rgb(255,255,255); fill-rule: nonzero; opacity: 1; visibility: hidden;" vector-effect="non-scaling-stroke"  x="-540" y="-540" rx="0" ry="0" width="1080" height="1080" />
</g>
<g transform="matrix(Infinity NaN NaN Infinity 0 0)" id="a6b5a553-0ca9-4236-bf4e-ec522f02b328"  >
</g>
<g transform="matrix(4.31 0 0 4.31 540 540)"  >
<g style="" vector-effect="non-scaling-stroke"   >
		<g transform="matrix(1 0 0 1 0 0)"  >
<path style="stroke: none; stroke-width: 1; stroke-dasharray: none; stroke-linecap: butt; stroke-dashoffset: 0; stroke-linejoin: miter; stroke-miterlimit: 4; fill: rgb(255,255,255); fill-rule: evenodd; opacity: 1;" vector-effect="non-scaling-stroke"  transform=" translate(-64, -64)" d="M 64 5.103 C 30.653 5.103 3.612000000000002 32.138 3.612000000000002 65.491 C 3.612000000000002 92.173 20.915000000000003 114.80799999999999 44.909 122.794 C 47.926 123.354 49.034 121.484 49.034 119.889 C 49.034 118.449 48.978 113.692 48.952 108.646 C 32.152 112.299 28.607 101.521 28.607 101.521 C 25.86 94.541 21.902 92.685 21.902 92.685 C 16.422 88.937 22.315 89.015 22.315 89.015 C 28.378 89.44 31.572000000000003 95.238 31.572000000000003 95.238 C 36.958000000000006 104.468 45.699000000000005 101.8 49.145 100.258 C 49.687000000000005 96.35499999999999 51.252 93.69 52.979000000000006 92.18199999999999 C 39.566 90.65699999999998 25.465000000000007 85.478 25.465000000000007 62.338999999999984 C 25.465000000000007 55.74599999999998 27.825000000000006 50.35899999999998 31.688000000000006 46.128999999999984 C 31.060000000000006 44.60899999999998 28.993000000000006 38.466999999999985 32.272000000000006 30.148999999999983 C 32.272000000000006 30.148999999999983 37.342000000000006 28.525999999999982 48.882000000000005 36.338999999999984 C 53.7 35 58.867 34.327 64 34.304 C 69.13 34.327000000000005 74.3 34.998000000000005 79.127 36.337 C 90.65299999999999 28.524000000000004 95.717 30.147000000000002 95.717 30.147000000000002 C 99.004 38.464 96.937 44.607 96.31 46.127 C 100.182 50.357 102.525 55.744 102.525 62.337 C 102.525 85.531 88.39800000000001 90.637 74.95100000000001 92.13300000000001 C 77.11800000000001 94.007 79.048 97.683 79.048 103.316 C 79.048 111.396 78.97800000000001 117.899 78.97800000000001 119.888 C 78.97800000000001 121.495 80.066 123.378 83.126 122.78500000000001 C 107.10600000000001 114.79100000000001 124.38900000000001 92.16300000000001 124.38900000000001 65.49100000000001 C 124.388 32.14 97.35 5.104 64 5.104 z" stroke-linecap="round" />
</g>
		<g transform="matrix(1 0 0 1 -27.26 33.69)"  >
<path style="stroke: none; stroke-width: 1; stroke-dasharray: none; stroke-linecap: butt; stroke-dashoffset: 0; stroke-linejoin: miter; stroke-miterlimit: 4; fill: rgb(255,255,255); fill-rule: nonzero; opacity: 1;" vector-effect="non-scaling-stroke"  transform=" translate(-36.74, -97.69)" d="M 26.484 91.806 C 26.351000000000003 92.106 25.879 92.196 25.449 91.991 C 25.009 91.795 24.764000000000003 91.386 24.906000000000002 91.085 C 25.036 90.77499999999999 25.509000000000004 90.69 25.946 90.89699999999999 C 26.386000000000003 91.094 26.636000000000003 91.50699999999999 26.483 91.80699999999999 z M 28.930000000000003 94.535 C 28.643000000000004 94.80199999999999 28.080000000000002 94.678 27.698000000000004 94.255 C 27.302000000000003 93.835 27.228000000000005 93.27199999999999 27.521000000000004 93.00099999999999 C 27.819000000000003 92.73499999999999 28.365000000000006 92.86099999999999 28.761000000000003 93.28099999999999 C 29.155 93.707 29.233000000000004 94.26499999999999 28.931000000000004 94.53599999999999 z M 31.312 98.012 C 30.942 98.27 30.336000000000002 98.029 29.962 97.492 C 29.592 96.95400000000001 29.592 96.309 29.972 96.052 C 30.345000000000002 95.79400000000001 30.942 96.027 31.322000000000003 96.55900000000001 C 31.69 97.10400000000001 31.69 97.74900000000001 31.312 98.01100000000001 z M 34.573 101.373 C 34.243 101.738 33.537 101.64 33.021 101.143 C 32.494 100.656 32.347 99.963 32.678 99.599 C 33.013999999999996 99.233 33.723 99.33500000000001 34.242 99.82900000000001 C 34.769 100.31500000000001 34.928 101.00900000000001 34.574999999999996 101.37200000000001 z M 39.073 103.324 C 38.926 103.797 38.248 104.012 37.563 103.81 C 36.88 103.60300000000001 36.433 103.05 36.573 102.572 C 36.713 102.095 37.396 101.872 38.085 102.087 C 38.768 102.293 39.215 102.843 39.073 103.324 z M 44.016 103.685 C 44.033 104.183 43.452999999999996 104.595 42.736 104.605 C 42.013 104.622 41.428 104.218 41.421 103.72800000000001 C 41.421 103.22500000000001 41.989 102.81800000000001 42.711 102.804 C 43.428 102.791 44.016999999999996 103.191 44.016999999999996 103.684 z M 48.614 102.903 C 48.699999999999996 103.388 48.201 103.887 47.488 104.02000000000001 C 46.788 104.15 46.138 103.84800000000001 46.048 103.367 C 45.962 102.869 46.47 102.37 47.17 102.241 C 47.884 102.118 48.524 102.411 48.614000000000004 102.904 z M 48.614 102.903" stroke-linecap="round" />
</g>
</g>
</g>
</svg>